# xmcd
#
# Track frame offsets:
#	150
#	8673
#	14646
#	18069
#	24717
#	27090
#	35088
#	39936
#	42609
#	47457
#	59955
#	69753
#	76026
#	85824
#
# Disc length: 1297 seconds
#
# Revision: 0
# Processed by: cddbd v1.5.2PL0 Copyright (c) Steve Scherf et al.
# Submitted via: audiograbber 1.83.01
#
DISCID=a3050f0e
DTITLE=LeechEater - 10,000 Years Before Clothing (pre)
DYEAR=2009
DGENRE=Grindcore
TTITLE0=Attack of the C.H.U.D.
TTITLE1=Brewed in the frosty mountains of Nigeria
TTITLE2=Children throw stones at her
TTITLE3=Let's get hurt
TTITLE4=They're little hands were everywhere
TTITLE5=No people, no problems
TTITLE6=Mail-order meth lab
TTITLE7=Face painter
TTITLE8=Smokin' blunt's and suplexin' punks
TTITLE9=Fording a river of shit
TTITLE10=Sore and flaccid
TTITLE11=The excellence of execution
TTITLE12=Meanwhile...in space
TTITLE13=Lowlife (Cryptic Slaughter)
EXTD=
EXTT0=
EXTT1=
EXTT2=
EXTT3=
EXTT4=
EXTT5=
EXTT6=
EXTT7=
EXTT8=
EXTT9=
EXTT10=
EXTT11=
EXTT12=
EXTT13=
PLAYORDER=
